<svg id="Capa_1" enable-background="new 0 0 512 512" height="512" viewBox="0 0 512 512" width="512" xmlns="http://www.w3.org/2000/svg" xmlns:xlink="http://www.w3.org/1999/xlink"><linearGradient id="SVGID_1_" gradientUnits="userSpaceOnUse" x1="278.519" x2="278.519" y1="391.954" y2="75.005"><stop offset="0" stop-color="#ffbef9"/><stop offset="1" stop-color="#fff1ff"/></linearGradient><linearGradient id="SVGID_2_" gradientUnits="userSpaceOnUse" x1="256" x2="256" y1="511.995" y2=".005"><stop offset="0" stop-color="#a93aff"/><stop offset="1" stop-color="#ff81ff"/></linearGradient><g><g><g><path d="m317 75.005c-66.182 0-120 53.833-120 120s53.818 120 120 120 120-53.833 120-120-53.818-120-120-120zm-137.812 236.587-54.756 54.756c-5.859 5.859-5.859 15.352 0 21.211 5.86 5.859 15.352 5.859 21.211 0l54.756-54.756c5.859-5.859 5.859-15.352 0-21.211s-15.352-5.859-21.211 0z" fill="url(#SVGID_1_)"/></g></g><g><g><path d="m332 210.005h-30v30h30c8.401 0 15-6.601 15-15 0-8.401-6.599-15-15-15zm0-60h-30v30h30c8.401 0 15-6.601 15-15 0-8.401-6.599-15-15-15zm-15-150c-107.4 0-195 87.599-195 195 0 52.2 20.4 101.4 57.001 137.699 36.599 36.902 85.799 57.301 137.999 57.301 107.4 0 195-87.601 195-195 0-107.4-87.6-195-195-195zm60 225c0 24.899-20.1 45-45 45v15c0 8.399-6.599 15-15 15s-15-6.601-15-15v-15h-30c-8.401 0-15-6.601-15-15 0-8.401 6.599-15 15-15v-90c-8.401 0-15-6.601-15-15 0-8.401 6.599-15 15-15h30v-15c0-8.401 6.599-15 15-15s15 6.599 15 15v15c24.9 0 45 20.099 45 45 0 11.4-4.2 21.899-11.4 30 7.2 8.099 11.4 18.6 11.4 30zm-252.48 120.191c-5.859-5.859-15.381-5.845-21.182-.015l-90.154 89.824c-17.578 17.593-17.578 46.216 0 63.809 17.46 17.521 46.221 17.633 63.838-.015l89.803-90.103c5.83-5.859 5.83-15.337-.029-21.196z" fill="url(#SVGID_2_)"/></g></g></g></svg>